<?xml version="1.0" encoding="UTF-8" standalone="no"?>
<!-- Created with Inkscape (http://www.inkscape.org/) -->

<svg
   width="109.88438mm"
   height="89.979279mm"
   viewBox="0 0 109.88438 89.979279"
   version="1.1"
   id="svg1"
   xml:space="preserve"
   inkscape:version="1.4 (86a8ad7, 2024-10-11)"
   sodipodi:docname="iago-icon.svg"
   xmlns:inkscape="http://www.inkscape.org/namespaces/inkscape"
   xmlns:sodipodi="http://sodipodi.sourceforge.net/DTD/sodipodi-0.dtd"
   xmlns="http://www.w3.org/2000/svg"
   xmlns:svg="http://www.w3.org/2000/svg"><sodipodi:namedview
     id="namedview1"
     pagecolor="#ffffff"
     bordercolor="#000000"
     borderopacity="0.25"
     inkscape:showpageshadow="2"
     inkscape:pageopacity="0.0"
     inkscape:pagecheckerboard="0"
     inkscape:deskcolor="#d1d1d1"
     inkscape:document-units="mm"
     inkscape:zoom="0.77771465"
     inkscape:cx="282.8801"
     inkscape:cy="394.10342"
     inkscape:current-layer="layer1" /><defs
     id="defs1" /><g
     inkscape:label="Layer 1"
     inkscape:groupmode="layer"
     id="layer1"
     transform="translate(-30.416917,-44.058818)"><path
       style="fill:#ff7f2a;stroke:#000000;stroke-width:1.94938;stroke-opacity:1"
       d="m 70.303064,132.2114 c -13.872372,-2.21922 -22.565567,-6.09899 -29.198278,-13.03119 -6.944765,-7.25836 -9.670703,-14.61854 -9.711913,-26.222684 -0.02041,-5.745053 0.178934,-7.667433 1.139599,-10.990773 1.283413,-4.439788 2.893475,-7.776443 5.285995,-10.954554 1.536266,-2.040688 1.558282,-2.151627 0.970738,-4.891245 C 38.03747,62.615717 38.476686,50.81948 39.479942,47.569495 l 0.716478,-2.320969 2.745767,0.07622 c 4.266523,0.118523 10.835877,2.525226 16.377112,5.999857 l 4.935743,3.094951 5.989706,-1.218089 c 8.636657,-1.75641 21.992066,-1.759373 30.490362,-0.0058 l 5.93282,1.223528 3.42475,-2.394052 c 4.70799,-3.291117 9.39389,-5.387284 14.3202,-6.405951 3.66557,-0.757958 4.24561,-0.769771 4.8728,-0.09922 1.83507,1.961738 3.03523,14.43285 1.92969,20.05211 l -0.61493,3.125673 2.06418,2.733965 c 4.23959,5.615323 6.18637,11.665688 6.6043,20.5254 1.01806,21.582142 -11.36455,35.490802 -35.39897,39.761602 -8.70359,1.54658 -25.44585,1.79281 -33.566886,0.49366 z m -1.271837,-24.82927 c 6.188621,-5.99826 2.979922,-20.106634 -4.570182,-20.094703 -3.331167,0.0058 -6.194838,2.351847 -7.485533,6.133896 -1.04091,3.050115 -0.757628,8.801987 0.562167,11.414487 2.492371,4.93359 7.814101,6.11258 11.493548,2.54632 z m 41.828603,1.23938 c 3.94955,-1.87419 5.86612,-8.745638 4.11724,-14.761538 -1.6547,-5.691972 -6.95083,-8.25946 -11.17085,-5.415453 -4.201105,2.831278 -5.708501,10.772677 -3.05963,16.118891 2.19364,4.42739 6.06304,5.98006 10.11324,4.0581 z"
       id="path1" /></g></svg>
